<svg width="224" height="50" viewBox="0 0 224 50" fill="none" xmlns="http://www.w3.org/2000/svg">
<path d="M103.521 0.574707H223.047V4.49416H105.172L79.448 29.9857H13.5967V26.0662H77.813L103.521 0.574707Z" fill="#FCEE0A"/>
<path d="M86.8708 33.2574L108.967 11.3613H135.671L113.576 33.2574H86.8708Z" fill="#FCEE0A"/>
<path d="M123.464 33.2574L145.56 11.3613H172.265L150.169 33.2574H123.464Z" fill="#FCEE0A"/>
<path d="M160.075 33.2574L182.155 11.3613H208.876L186.78 33.2574H160.075Z" fill="#FCEE0A"/>
<path d="M170.413 37.624L171.814 39.013L165.586 45.1853H136.747V43.2256H164.776L170.413 37.624Z" fill="#FCEE0A"/>
<path d="M134.799 37.624L136.201 39.013L129.972 45.1853H101.134V43.2256H129.162L134.799 37.624Z" fill="#FCEE0A"/>
<path d="M99.1876 37.624L100.589 39.013L94.3606 45.1853H65.5224V43.2256H93.5508L99.1876 37.624Z" fill="#FCEE0A"/>
<path opacity="0.55" d="M136.748 49.9999H162.145L164.854 46.9756H136.748V49.9999Z" fill="#FCEE0A"/>
<path opacity="0.77" d="M101.135 49.9999H126.532L129.242 46.9756H101.135V49.9999Z" fill="#FCEE0A"/>
<path opacity="0.88" d="M65.5249 49.9999H90.9373L93.6311 46.9756H65.5249V49.9999Z" fill="#FCEE0A"/>
<path d="M91.481 15.2808H69.0583L55.7136 28.5204H77.638L91.481 15.2808Z" fill="#FCEE0A"/>
<path d="M21.2973 17.6283L2.50235 36.2534L4.86977 38.5995L23.6647 19.9743L21.2973 17.6283Z" fill="#FCEE0A"/>
<path d="M4.93805 17.5203L2.57077 19.8662L21.3658 38.4914L23.7331 36.1455L4.93805 17.5203Z" fill="#FCEE0A"/>
<path d="M7.5677 18.7061C7.5677 16.6384 5.87043 14.9565 3.78387 14.9565C1.69731 14.9565 0 16.6384 0 18.7061C0 20.7738 1.69731 22.4557 3.78387 22.4557C5.87043 22.4711 7.5677 20.7892 7.5677 18.7061Z" fill="#FCEE0A"/>
<path d="M26.3636 18.7061C26.3636 16.6384 24.6663 14.9565 22.5798 14.9565C20.4932 14.9565 18.7959 16.6384 18.7959 18.7061C18.7959 20.7738 20.4932 22.4557 22.5798 22.4557C24.6663 22.4557 26.3636 20.7892 26.3636 18.7061Z" fill="#FCEE0A"/>
<path d="M7.5677 37.3467C7.5677 35.279 5.87043 33.5972 3.78387 33.5972C1.69731 33.5972 0 35.279 0 37.3467C0 39.4144 1.69731 41.0963 3.78387 41.0963C5.87043 41.0963 7.5677 39.4144 7.5677 37.3467Z" fill="#FCEE0A"/>
<path d="M26.3636 37.3462C26.3636 35.2785 24.6663 33.5967 22.5798 33.5967C20.4932 33.5967 18.7959 35.2785 18.7959 37.3462C18.7959 39.4139 20.4932 41.0958 22.5798 41.0958C24.6663 41.0958 26.3636 39.4139 26.3636 37.3462Z" fill="#FCEE0A"/>
</svg>
