<svg width="256" height="91" viewBox="0 0 256 91" fill="none" xmlns="http://www.w3.org/2000/svg">
<path d="M202.366 2.94678H250.653V6.86623H204.001L122.89 87.2449H5.34164V83.3254H121.255L202.366 2.94678Z" fill="#00F0FF"/>
<path d="M250.654 9.81371C253.389 9.81371 255.606 7.6169 255.606 4.90686C255.606 2.19682 253.389 0 250.654 0C247.919 0 245.702 2.19682 245.702 4.90686C245.702 7.6169 247.919 9.81371 250.654 9.81371Z" fill="#00F0FF"/>
<path d="M5.34178 90.1925C8.07653 90.1925 10.2935 87.9957 10.2935 85.2857C10.2935 82.5756 8.07653 80.3784 5.34178 80.3784C2.60704 80.3784 0.390106 82.5756 0.390106 85.2857C0.390106 87.9957 2.60704 90.1925 5.34178 90.1925Z" fill="#00F0FF"/>
</svg>
