<svg width="256" height="91" viewBox="0 0 256 91" fill="none" xmlns="http://www.w3.org/2000/svg">
<path d="M53.634 2.94678H5.34735V6.86623H51.9991L133.11 87.2449H250.658V83.3254H134.745L53.634 2.94678Z" fill="#00F0FF"/>
<path d="M5.3459 9.81371C2.61116 9.81371 0.394127 7.6169 0.394127 4.90686C0.394127 2.19682 2.61116 0 5.3459 0C8.08064 0 10.2976 2.19682 10.2976 4.90686C10.2976 7.6169 8.08064 9.81371 5.3459 9.81371Z" fill="#00F0FF"/>
<path d="M250.658 90.1925C247.923 90.1925 245.707 87.9957 245.707 85.2857C245.707 82.5756 247.923 80.3784 250.658 80.3784C253.393 80.3784 255.61 82.5756 255.61 85.2857C255.61 87.9957 253.393 90.1925 250.658 90.1925Z" fill="#00F0FF"/>
</svg>
