<svg width="24" height="24" viewBox="0 0 24 24" fill="none" xmlns="http://www.w3.org/2000/svg">
<path d="M21.7387 16.4136C21.5716 17.6839 20.9477 18.85 19.9837 19.6939C19.0196 20.5379 17.7813 21.0021 16.5 20.9998C9.05624 20.9998 2.99999 14.9436 2.99999 7.49981C2.9977 6.21852 3.46189 4.98021 4.30587 4.01615C5.14985 3.05209 6.3159 2.42822 7.58624 2.26106C7.90748 2.22184 8.23279 2.28756 8.51361 2.44841C8.79442 2.60926 9.01569 2.85662 9.14437 3.15356L11.1244 7.57387V7.58512C11.2229 7.81242 11.2636 8.06059 11.2428 8.30744C11.222 8.5543 11.1404 8.79217 11.0053 8.99981C10.9884 9.02512 10.9706 9.04856 10.9519 9.072L8.99999 11.3857C9.70218 12.8126 11.1947 14.292 12.6403 14.9961L14.9222 13.0545C14.9446 13.0357 14.9681 13.0181 14.9925 13.002C15.2 12.8636 15.4386 12.7792 15.687 12.7562C15.9353 12.7333 16.1854 12.7727 16.4147 12.8707L16.4269 12.8764L20.8434 14.8554C21.1409 14.9837 21.3889 15.2047 21.5502 15.4856C21.7116 15.7664 21.7778 16.092 21.7387 16.4136Z" fill="#FCEE0A"/>
</svg>
